<?xml version="1.0" encoding="utf-8"?>
<!-- Generator: Adobe Illustrator 25.2.3, SVG Export Plug-In . SVG Version: 6.00 Build 0)  -->
<svg version="1.1" id="Layer_1" xmlns="http://www.w3.org/2000/svg" xmlns:xlink="http://www.w3.org/1999/xlink" x="0px" y="0px"
	 viewBox="0 0 109.7 24" style="enable-background:new 0 0 109.7 24;" xml:space="preserve">
<style type="text/css">
	.st0{fill:#FFFFFF;}
	.st1{fill:#00FF2A;}
</style>
<g>
	<g>
		<g>
			<rect x="34.9" y="10.3" class="st0" width="3.2" height="13.6"/>
			
				<rect x="40.2" y="5" transform="matrix(-1.836970e-16 1 -1 -1.836970e-16 50.4648 -33.0959)" class="st0" width="3.2" height="7.4"/>
		</g>
		<path class="st0" d="M29.6,19.1c1.1,0,2.1,0,3.2,0c-0.4,1.7-2.4,4.9-7.4,4.9s-8.1-3.7-8.1-8.3S20,7,25.5,7c4.4,0,6.5,2.7,7.3,5.2
			c0.5,1.6,0.5,3.2,0.4,4.9c-4.2,0-8.3,0-12.5,0c0,2.2,1.7,3.8,4.7,3.8S29.6,19.7,29.6,19.1z M20.7,14.1H30c0-1.3-0.9-4.1-4.6-4.1
			S20.7,12.8,20.7,14.1z"/>
		<path class="st0" d="M0,0h3.5L9,20.7h1.5L16.1,0h3.5l-6.4,23.9H6.4L0,0z"/>
		<path class="st0" d="M47.2,0c0,0,6.4,0,9.4,0c4.8,0,8,3.7,8,8c0,2.7,0,5.3,0,8c0,3.6-1.9,7.9-7.6,7.9c-3.1,0-9.8,0-9.8,0V0z
			 M50.4,20.7c0,0,4.1,0,6.6,0c2.6-0.1,4.3-1.9,4.4-4.5c0-2.9,0-5.6,0-8.5c-0.1-2.8-2-4.5-4.7-4.5c-1.9,0-6.2,0-6.2,0L50.4,20.7z"/>
		<g>
			
				<rect x="69.9" y="3.3" transform="matrix(-1.836970e-16 1 -1 -1.836970e-16 79.9028 -63.0401)" class="st0" width="3.2" height="10.2"/>
			<path class="st0" d="M79.8,10v10.7H82v3.2h-5.5v-1.5c0,0-0.9,0.7-1.3,0.9c-1,0.5-1.9,0.7-3.2,0.7c-5.7,0-6.4-3.3-6.4-5.7
				c0-4.5,5.6-5.2,7.3-5.2c1.2,0,3.7,0,3.7,0V10H79.8z M76.6,16.1c-1.2,0-2.3,0-3.4,0c-0.5,0-0.9,0-1.4,0.1c-0.8,0.1-1.6,0.4-2.2,1
				c-0.8,0.9-0.8,2.2,0.1,3c0.4,0.3,0.8,0.6,1.3,0.7c1.4,0.4,2.7,0.2,3.9-0.5c0.8-0.4,1.4-1.1,1.5-1.9
				C76.6,17.7,76.5,16.9,76.6,16.1z"/>
		</g>
		<path class="st0" d="M83.7,23.9V10h-2.4V6.8h2.3V0h3.2v6.8h5.6V10H87v10.7h7v3.2H83.7z"/>
	</g>
	<g>
		<circle class="st0" cx="97.1" cy="8.3" r="1.5"/>
		<circle class="st0" cx="102.6" cy="8.3" r="1.5"/>
		<circle class="st1" cx="108.1" cy="8.3" r="1.5"/>
		<circle class="st0" cx="99.8" cy="11.8" r="1.5"/>
		<circle class="st1" cx="105.4" cy="11.8" r="1.5"/>
		<circle class="st1" cx="99.8" cy="18.9" r="1.5"/>
		<circle class="st0" cx="105.4" cy="18.9" r="1.5"/>
		<circle class="st1" cx="97.1" cy="15.4" r="1.5"/>
		<circle class="st1" cx="102.6" cy="15.4" r="1.5"/>
		<circle class="st0" cx="108.1" cy="15.4" r="1.5"/>
		<circle class="st0" cx="97.1" cy="22.4" r="1.5"/>
		<circle class="st0" cx="102.6" cy="22.4" r="1.5"/>
		<circle class="st0" cx="108.1" cy="22.4" r="1.5"/>
	</g>
</g>
</svg>
