<svg width="16" height="16" viewBox="0 0 16 16" fill="none" xmlns="http://www.w3.org/2000/svg">
<g clip-path="url(#clip0_10561_2161)">
<path d="M13.5998 0.799805H2.3998C1.5198 0.799805 0.799805 1.5198 0.799805 2.3998V13.5998C0.799805 14.4806 1.5198 15.1998 2.3998 15.1998H7.9998V9.5998H6.3998V7.6198H7.9998V5.9798C7.9998 4.2486 8.9694 3.0326 11.0126 3.0326L12.455 3.0342V5.1182H11.4974C10.7022 5.1182 10.3998 5.715 10.3998 6.2686V7.6206H12.4542L11.9998 9.5998H10.3998V15.1998H13.5998C14.4798 15.1998 15.1998 14.4806 15.1998 13.5998V2.3998C15.1998 1.5198 14.4798 0.799805 13.5998 0.799805Z" fill="white"/>
</g>
<defs>
<clipPath id="clip0_10561_2161">
<rect width="16" height="16" fill="white"/>
</clipPath>
</defs>
</svg>
